<svg width="235" height="54" viewBox="0 0 235 54" fill="none" xmlns="http://www.w3.org/2000/svg">
<rect x="73.5537" y="9.4353" width="9" height="9" transform="rotate(-55.7048 73.5537 9.4353)" fill="white"/>
<path d="M6 13.6379V46.6379H79V13.6379" stroke="white" stroke-width="12"/>
<path d="M46 46.6379C42.3077 44.2379 17.7949 23.6379 6 13.6379V15.1379" stroke="white" stroke-width="12"/>
<path d="M109.208 26.3187V46.2249H105.106V26.3187H109.208ZM117.138 34.8226V38.0218H108.087V34.8226H117.138ZM118.095 26.3187V29.5316H108.087V26.3187H118.095ZM118.178 38.9788V38.6917C118.178 37.6071 118.333 36.609 118.643 35.6976C118.953 34.777 119.404 33.9795 119.996 33.305C120.589 32.6305 121.318 32.1064 122.184 31.7327C123.05 31.3499 124.043 31.1585 125.164 31.1585C126.285 31.1585 127.283 31.3499 128.158 31.7327C129.033 32.1064 129.767 32.6305 130.359 33.305C130.961 33.9795 131.417 34.777 131.727 35.6976C132.037 36.609 132.191 37.6071 132.191 38.6917V38.9788C132.191 40.0543 132.037 41.0524 131.727 41.973C131.417 42.8844 130.961 43.6819 130.359 44.3655C129.767 45.04 129.038 45.5641 128.172 45.9378C127.306 46.3115 126.313 46.4984 125.191 46.4984C124.07 46.4984 123.072 46.3115 122.197 45.9378C121.331 45.5641 120.598 45.04 119.996 44.3655C119.404 43.6819 118.953 42.8844 118.643 41.973C118.333 41.0524 118.178 40.0543 118.178 38.9788ZM122.115 38.6917V38.9788C122.115 39.5986 122.17 40.1774 122.279 40.7151C122.389 41.2529 122.562 41.7269 122.799 42.137C123.045 42.5381 123.364 42.8525 123.756 43.0804C124.148 43.3082 124.626 43.4222 125.191 43.4222C125.738 43.4222 126.208 43.3082 126.6 43.0804C126.992 42.8525 127.306 42.5381 127.543 42.137C127.78 41.7269 127.953 41.2529 128.063 40.7151C128.181 40.1774 128.24 39.5986 128.24 38.9788V38.6917C128.24 38.0901 128.181 37.525 128.063 36.9964C127.953 36.4586 127.775 35.9847 127.529 35.5745C127.292 35.1553 126.978 34.8271 126.586 34.5901C126.194 34.3532 125.72 34.2347 125.164 34.2347C124.608 34.2347 124.134 34.3532 123.742 34.5901C123.359 34.8271 123.045 35.1553 122.799 35.5745C122.562 35.9847 122.389 36.4586 122.279 36.9964C122.17 37.525 122.115 38.0901 122.115 38.6917ZM139.603 43.4222C140.086 43.4222 140.514 43.331 140.888 43.1487C141.262 42.9573 141.553 42.693 141.763 42.3558C141.982 42.0094 142.096 41.6038 142.105 41.139H145.81C145.801 42.178 145.523 43.1032 144.976 43.9144C144.429 44.7165 143.695 45.3499 142.775 45.8148C141.854 46.2705 140.824 46.4984 139.685 46.4984C138.536 46.4984 137.534 46.3069 136.677 45.9241C135.829 45.5413 135.123 45.0127 134.558 44.3382C133.993 43.6546 133.569 42.8616 133.286 41.9593C133.004 41.0478 132.863 40.0726 132.863 39.0335V38.637C132.863 37.5888 133.004 36.6136 133.286 35.7112C133.569 34.7998 133.993 34.0068 134.558 33.3323C135.123 32.6487 135.829 32.1155 136.677 31.7327C137.525 31.3499 138.518 31.1585 139.657 31.1585C140.87 31.1585 141.932 31.3909 142.843 31.8558C143.764 32.3206 144.484 32.986 145.003 33.8519C145.532 34.7086 145.801 35.7249 145.81 36.9007H142.105C142.096 36.4085 141.991 35.9619 141.79 35.5609C141.599 35.1598 141.316 34.8408 140.943 34.6038C140.578 34.3577 140.127 34.2347 139.589 34.2347C139.015 34.2347 138.545 34.3577 138.181 34.6038C137.816 34.8408 137.534 35.1689 137.333 35.5882C137.133 35.9984 136.991 36.4678 136.909 36.9964C136.836 37.5159 136.8 38.0628 136.8 38.637V39.0335C136.8 39.6077 136.836 40.1592 136.909 40.6878C136.982 41.2165 137.119 41.6859 137.32 42.096C137.529 42.5062 137.816 42.8297 138.181 43.0667C138.545 43.3037 139.019 43.4222 139.603 43.4222ZM155.723 42.6839V31.4319H159.66V46.2249H155.955L155.723 42.6839ZM156.16 39.6487L157.323 39.6214C157.323 40.6058 157.209 41.5218 156.981 42.3694C156.753 43.208 156.411 43.9372 155.955 44.5569C155.5 45.1676 154.925 45.6461 154.233 45.9925C153.54 46.3297 152.724 46.4984 151.785 46.4984C151.065 46.4984 150.4 46.3981 149.789 46.1976C149.188 45.9879 148.668 45.6644 148.231 45.2269C147.802 44.7803 147.465 44.2106 147.219 43.5179C146.982 42.8161 146.864 41.973 146.864 40.9886V31.4319H150.801V41.0159C150.801 41.4534 150.851 41.8226 150.951 42.1234C151.061 42.4241 151.211 42.6702 151.403 42.8616C151.594 43.053 151.817 43.1898 152.073 43.2718C152.337 43.3538 152.629 43.3948 152.948 43.3948C153.759 43.3948 154.397 43.2308 154.862 42.9026C155.336 42.5745 155.668 42.1279 155.86 41.5628C156.06 40.9886 156.16 40.3506 156.16 39.6487ZM169.546 42.137C169.546 41.8545 169.464 41.5993 169.3 41.3714C169.136 41.1435 168.831 40.9339 168.384 40.7425C167.947 40.542 167.313 40.3597 166.484 40.1956C165.736 40.0316 165.039 39.8265 164.392 39.5804C163.754 39.3252 163.198 39.0198 162.724 38.6644C162.259 38.3089 161.895 37.8896 161.63 37.4066C161.366 36.9144 161.234 36.3538 161.234 35.7249C161.234 35.1051 161.366 34.5218 161.63 33.9749C161.904 33.428 162.291 32.945 162.792 32.5257C163.303 32.0973 163.923 31.7646 164.652 31.5276C165.39 31.2816 166.22 31.1585 167.14 31.1585C168.425 31.1585 169.528 31.3636 170.449 31.7737C171.378 32.1839 172.089 32.749 172.581 33.4691C173.083 34.18 173.333 34.9912 173.333 35.9026H169.396C169.396 35.5198 169.314 35.178 169.15 34.8773C168.995 34.5674 168.749 34.3258 168.412 34.1526C168.083 33.9704 167.655 33.8792 167.126 33.8792C166.689 33.8792 166.311 33.9567 165.992 34.1116C165.673 34.2575 165.427 34.458 165.253 34.7132C165.089 34.9593 165.007 35.2327 165.007 35.5335C165.007 35.7614 165.053 35.9665 165.144 36.1487C165.244 36.3219 165.404 36.4814 165.623 36.6273C165.841 36.7731 166.124 36.9098 166.47 37.0374C166.826 37.1559 167.263 37.2653 167.783 37.3655C168.849 37.5843 169.802 37.8714 170.64 38.2269C171.479 38.5732 172.144 39.0472 172.636 39.6487C173.128 40.2412 173.374 41.0205 173.374 41.9866C173.374 42.6429 173.229 43.2444 172.937 43.7913C172.645 44.3382 172.226 44.8167 171.679 45.2269C171.132 45.6279 170.476 45.9424 169.71 46.1702C168.954 46.389 168.102 46.4984 167.154 46.4984C165.777 46.4984 164.611 46.2523 163.654 45.7601C162.706 45.2679 161.986 44.6435 161.494 43.887C161.011 43.1214 160.769 42.3375 160.769 41.5355H164.501C164.52 42.0732 164.656 42.5062 164.912 42.8343C165.176 43.1624 165.509 43.3994 165.91 43.5452C166.32 43.6911 166.762 43.764 167.236 43.764C167.746 43.764 168.17 43.6956 168.507 43.5589C168.845 43.4131 169.1 43.2217 169.273 42.9847C169.455 42.7386 169.546 42.456 169.546 42.137ZM189.004 29.723L183.59 46.2249H179.228L186.625 26.3187H189.4L189.004 29.723ZM193.502 46.2249L188.074 29.723L187.636 26.3187H190.439L197.877 46.2249H193.502ZM193.256 38.8148V42.0276H182.742V38.8148H193.256ZM202.294 34.6585V46.2249H198.356V31.4319H202.061L202.294 34.6585ZM206.751 31.3362L206.682 34.9866C206.491 34.9593 206.259 34.9365 205.985 34.9183C205.721 34.8909 205.479 34.8773 205.261 34.8773C204.705 34.8773 204.221 34.9502 203.811 35.096C203.41 35.2327 203.073 35.4378 202.8 35.7112C202.535 35.9847 202.335 36.3174 202.198 36.7093C202.07 37.1012 201.998 37.5478 201.979 38.0491L201.186 37.803C201.186 36.846 201.282 35.9665 201.473 35.1644C201.665 34.3532 201.943 33.6468 202.307 33.0452C202.681 32.4437 203.137 31.9788 203.675 31.6507C204.212 31.3226 204.828 31.1585 205.52 31.1585C205.739 31.1585 205.962 31.1767 206.19 31.2132C206.418 31.2405 206.605 31.2816 206.751 31.3362ZM214.025 46.4984C212.877 46.4984 211.847 46.3161 210.935 45.9515C210.024 45.5778 209.249 45.0628 208.611 44.4066C207.982 43.7503 207.499 42.9892 207.162 42.1234C206.825 41.2484 206.656 40.3187 206.656 39.3343V38.7874C206.656 37.6663 206.816 36.6409 207.135 35.7112C207.454 34.7816 207.909 33.9749 208.502 33.2913C209.103 32.6077 209.833 32.0836 210.689 31.7191C211.546 31.3454 212.512 31.1585 213.588 31.1585C214.636 31.1585 215.566 31.3317 216.377 31.678C217.188 32.0244 217.867 32.5166 218.414 33.1546C218.97 33.7926 219.389 34.5582 219.672 35.4515C219.954 36.3356 220.096 37.32 220.096 38.4046V40.0452H208.338V37.4202H216.226V37.1194C216.226 36.5726 216.126 36.0849 215.926 35.6566C215.734 35.2191 215.443 34.8727 215.051 34.6175C214.659 34.3623 214.157 34.2347 213.547 34.2347C213.027 34.2347 212.581 34.3486 212.207 34.5765C211.833 34.8043 211.528 35.1234 211.291 35.5335C211.063 35.9437 210.89 36.4267 210.771 36.9827C210.662 37.5296 210.607 38.1312 210.607 38.7874V39.3343C210.607 39.9267 210.689 40.4736 210.853 40.9749C211.027 41.4762 211.268 41.9092 211.578 42.2737C211.897 42.6383 212.28 42.9209 212.726 43.1214C213.182 43.3219 213.697 43.4222 214.271 43.4222C214.982 43.4222 215.643 43.2855 216.254 43.012C216.874 42.7295 217.407 42.3056 217.853 41.7405L219.768 43.8187C219.458 44.2653 219.034 44.6937 218.496 45.1038C217.967 45.514 217.329 45.8512 216.582 46.1155C215.835 46.3707 214.982 46.4984 214.025 46.4984ZM229.202 42.889V36.2991C229.202 35.8252 229.125 35.4196 228.97 35.0823C228.815 34.736 228.573 34.4671 228.245 34.2757C227.926 34.0843 227.511 33.9886 227.001 33.9886C226.564 33.9886 226.185 34.0661 225.866 34.221C225.547 34.3668 225.301 34.581 225.128 34.8636C224.955 35.137 224.868 35.4606 224.868 35.8343H220.931C220.931 35.2054 221.077 34.6084 221.368 34.0433C221.66 33.4782 222.084 32.9814 222.64 32.553C223.196 32.1155 223.856 31.7737 224.622 31.5276C225.397 31.2816 226.263 31.1585 227.22 31.1585C228.368 31.1585 229.389 31.3499 230.282 31.7327C231.175 32.1155 231.877 32.6898 232.388 33.4554C232.907 34.221 233.167 35.178 233.167 36.3265V42.6566C233.167 43.4678 233.217 44.1331 233.317 44.6526C233.418 45.1631 233.564 45.6097 233.755 45.9925V46.2249H229.776C229.585 45.8239 229.439 45.3226 229.339 44.721C229.248 44.1103 229.202 43.4997 229.202 42.889ZM229.722 37.2151L229.749 39.4437H227.548C227.028 39.4437 226.577 39.5029 226.194 39.6214C225.812 39.7399 225.497 39.9085 225.251 40.1273C225.005 40.3369 224.823 40.583 224.704 40.8655C224.595 41.1481 224.54 41.458 224.54 41.7952C224.54 42.1325 224.618 42.4378 224.772 42.7112C224.927 42.9756 225.151 43.1852 225.442 43.3401C225.734 43.486 226.076 43.5589 226.468 43.5589C227.06 43.5589 227.575 43.4404 228.013 43.2034C228.45 42.9665 228.787 42.6748 229.024 42.3284C229.271 41.9821 229.398 41.654 229.407 41.3441L230.446 43.012C230.3 43.3857 230.1 43.7731 229.845 44.1741C229.599 44.5752 229.284 44.9534 228.901 45.3089C228.519 45.6553 228.058 45.9424 227.521 46.1702C226.983 46.389 226.345 46.4984 225.606 46.4984C224.668 46.4984 223.815 46.3115 223.05 45.9378C222.293 45.555 221.692 45.0309 221.245 44.3655C220.808 43.6911 220.589 42.9254 220.589 42.0687C220.589 41.2939 220.735 40.6058 221.026 40.0042C221.318 39.4026 221.746 38.8968 222.312 38.4866C222.886 38.0674 223.601 37.7529 224.458 37.5433C225.315 37.3245 226.308 37.2151 227.439 37.2151H229.722Z" fill="white"/>
</svg>
