<svg width="42" height="31" viewBox="0 0 42 31" fill="none" xmlns="http://www.w3.org/2000/svg">
<path d="M31.3987 10.79L40.7264 4.74446C41.3094 4.36661 41.1177 3.42827 40.4871 3.4385L2.12747 0.540294C1.59406 0.487544 1.20409 1.27159 1.54252 1.71635L18.6916 30.0501C18.9818 30.3933 19.6124 30.3831 19.7591 29.8895L27.4071 16.5648L33.8981 20.0616C34.4308 20.3804 35.1116 19.6735 34.8221 19.0642L31.3987 10.79ZM30.431 9.82329L7.84634 2.41232L29.9592 3.22012L38.3013 4.72238L34.6816 7.83514L30.431 9.82329ZM4.0609 3.27189C6.74161 4.59413 9.60276 6.11905 12.6443 7.84664C15.6859 9.57423 20.2517 12.2677 26.3416 15.9271L23.2194 22.3695L19.2296 28.2403L11.7025 17.106L4.0609 3.27189ZM27.2908 15.7163L3.34219 1.57548L21.5716 7.95546L30.0397 11.1395L31.9386 14.1042L32.8365 17.8275L27.2908 15.7163Z" fill="#A0A0A0" stroke="#D7D0DF"/>
</svg>
